<?xml version="1.0" encoding="UTF-8"?>
<svg version="1.1" xmlns="http://www.w3.org/2000/svg" width="1080" height="1350">
<path d="M0 0 C1.23685547 -0.04576172 2.47371094 -0.09152344 3.74804688 -0.13867188 C12.7870828 -0.25098837 12.7870828 -0.25098837 16.82421875 2.8359375 C19.38777599 7.04120591 20.76226585 11.81754176 22.1875 16.5 C22.86680136 18.62205331 23.54932781 20.74307584 24.234375 22.86328125 C24.61400391 24.04486816 24.99363281 25.22645508 25.38476562 26.44384766 C27.68929082 33.55111673 30.12016653 40.61570429 32.5690918 47.67428589 C33.14625833 49.34463293 33.71872051 51.01661319 34.28637695 52.69021606 C35.09141082 55.06304219 35.91113258 57.43031473 36.734375 59.796875 C36.97271057 60.50945969 37.21104614 61.22204437 37.456604 61.95622253 C38.86613185 65.94747277 40.0693493 69.09283797 43.6875 71.4375 C48.87501691 71.31200179 53.43794299 69.60656772 58.2109375 67.70703125 C59.26760117 67.29767586 59.26760117 67.29767586 60.34561157 66.88005066 C62.58735862 66.01032453 64.82507259 65.130772 67.0625 64.25 C69.98552652 63.10692606 72.91028337 61.96836166 75.8359375 60.83203125 C76.56157898 60.54946472 77.28722046 60.26689819 78.03485107 59.97576904 C83.92505454 57.69669422 89.86188506 55.56874326 95.83627319 53.52095032 C99.91398035 52.11224365 103.89292544 50.55535894 107.85469055 48.84667969 C120.10895906 43.60360957 120.10895906 43.60360957 125.6875 45.4375 C128.74980741 47.42799981 131.15674483 49.82185576 133.6875 52.4375 C134.29207031 52.93894531 134.89664062 53.44039063 135.51953125 53.95703125 C138.67555989 56.64002515 139.65010669 58.01554081 140.01977539 62.18701172 C139.87740597 66.41681384 138.65858952 69.65647256 136.87109375 73.5078125 C136.57695084 74.15136688 136.28280792 74.79492126 135.97975159 75.45797729 C135.04214358 77.49962402 134.08388667 79.53077553 133.125 81.5625 C132.5084309 82.90042738 131.89318685 84.23896623 131.27929688 85.578125 C127.26444751 94.29085424 123.01058182 102.87427961 118.6875 111.4375 C117.1882297 114.42814821 115.70871729 117.42689386 114.25 120.4375 C113.90001953 121.13488281 113.55003906 121.83226562 113.18945312 122.55078125 C111.19551992 126.69472854 110.26824821 129.7301115 110.6875 134.4375 C119.10893684 138.93531286 127.61759954 142.40063285 136.56787109 145.65771484 C142.42078163 147.81092796 148.21775611 150.11268893 154.02099609 152.39550781 C157.06782696 153.58612071 160.12201685 154.75697786 163.17578125 155.9296875 C165.42990496 156.80673297 167.6838126 157.68433398 169.9375 158.5625 C171.0092749 158.97016602 172.0810498 159.37783203 173.18530273 159.79785156 C185.85627628 164.77505255 185.85627628 164.77505255 188.6875 170.4375 C188.70373244 172.25298036 188.65230981 174.06929299 188.56640625 175.8828125 C188.51806641 176.95917969 188.46972656 178.03554688 188.41992188 179.14453125 C188.36384766 180.27246094 188.30777344 181.40039062 188.25 182.5625 C188.19779297 183.69816406 188.14558594 184.83382812 188.09179688 186.00390625 C187.96185544 188.81536631 187.82688086 191.62649465 187.6875 194.4375 C188.55701294 194.89020264 188.55701294 194.89020264 189.4440918 195.35205078 C192.09505185 196.74204943 194.73489181 198.15200621 197.375 199.5625 C198.28701172 200.036875 199.19902344 200.51125 200.13867188 201 C206.1439168 204.23191363 210.56038214 207.18326428 213.6875 213.4375 C213.79819753 215.10471157 213.84665683 216.77623427 213.86450195 218.44702148 C213.87733719 219.49248642 213.89017242 220.53795135 213.90339661 221.61509705 C213.91447701 223.31962791 213.91447701 223.31962791 213.92578125 225.05859375 C213.933853 226.22826187 213.94192474 227.39792999 213.95024109 228.6030426 C213.9640971 231.08715325 213.97481243 233.57128305 213.98266602 236.05541992 C213.99978825 239.82833945 214.04365148 243.60036208 214.08789062 247.37304688 C214.09802546 249.78905607 214.10653908 252.20507271 214.11328125 254.62109375 C214.13078934 255.73922958 214.14829742 256.85736542 214.16633606 258.00938416 C214.1345811 269.66509522 210.78616933 278.95634731 202.6875 287.4375 C193.09807684 296.34344375 180.73143737 301.62331107 167.6875 301.4375 C167.73390625 300.591875 167.7803125 299.74625 167.828125 298.875 C168.20792581 288.93224095 168.20792581 288.93224095 163.6875 280.4375 C156.14208002 273.7600133 146.93915316 270.10826364 137.6875 266.4375 C138.04577881 266.91582275 138.40405762 267.39414551 138.77319336 267.88696289 C140.40453434 270.08123699 142.01473147 272.29022173 143.625 274.5 C144.18896484 275.25216797 144.75292969 276.00433594 145.33398438 276.77929688 C148.59503133 281.29008638 150.65946892 284.67711229 150.6875 290.4375 C150.05078125 292.80078125 150.05078125 292.80078125 149 294.75 C148.49919922 295.73419922 148.49919922 295.73419922 147.98828125 296.73828125 C146.44447425 298.75496607 144.96258393 299.37768549 142.6875 300.4375 C142.73463135 301.82533691 142.73463135 301.82533691 142.78271484 303.24121094 C143.81215594 338.20745916 143.81215594 338.20745916 136.6875 354.4375 C136.3771582 355.16050293 136.06681641 355.88350586 135.74707031 356.62841797 C131.77582125 365.6659445 126.88009864 373.72524525 120.6875 381.4375 C120.17058594 382.12972656 119.65367187 382.82195312 119.12109375 383.53515625 C112.02173828 392.48497029 101.34335659 399.53035258 90.6875 403.4375 C90.0275 403.4375 89.3675 403.4375 88.6875 403.4375 C87.62764745 382.73448875 87.56292822 362.07157842 87.61883545 341.34863281 C87.62926794 337.05664581 87.63367466 332.76465241 87.63867188 328.47265625 C87.64923435 320.1275873 87.66618374 311.7825484 87.6875 303.4375 C86.78 303.14875 85.8725 302.86 84.9375 302.5625 C82.35651709 301.66908284 80.09907674 300.68522883 77.6875 299.4375 C77.69194122 300.67095154 77.69638245 301.90440308 77.70095825 303.17523193 C77.74176093 314.88304182 77.77160631 326.590837 77.79112434 338.29870224 C77.80149652 344.31570178 77.81553358 350.33264324 77.83837891 356.34960938 C77.86034421 362.17220875 77.87211778 367.99475279 77.87725449 373.81739044 C77.88090823 376.02257405 77.88804088 378.22775513 77.89896011 380.43291473 C78.1868893 441.07368979 78.1868893 441.07368979 60.6875 460.4375 C57.1619199 463.60993351 53.40848999 466.49815193 49.6875 469.4375 C48.69363281 470.24703125 47.69976562 471.0565625 46.67578125 471.890625 C37.76411138 479.00207047 27.5950993 486.80163357 16.6875 490.4375 C16.09850527 471.9949575 15.68274704 453.55171404 15.43359375 435.1015625 C15.42323153 434.3400526 15.4128693 433.57854271 15.40219307 432.79395676 C15.29733094 425.05860524 15.19723182 417.32321765 15.10687351 409.58768272 C14.91303709 393.18810917 14.59841922 376.81635829 13.6875 360.4375 C13.13030273 360.60499756 12.57310547 360.77249512 11.99902344 360.94506836 C9.44816709 361.4884859 7.3052034 361.45920324 4.703125 361.31640625 C3.76855469 361.26806641 2.83398438 361.21972656 1.87109375 361.16992188 C0.90300781 361.11384766 -0.06507813 361.05777344 -1.0625 361 C-2.04605469 360.94779297 -3.02960938 360.89558594 -4.04296875 360.84179688 C-6.46648849 360.71238563 -8.88956864 360.57743095 -11.3125 360.4375 C-11.29997192 361.25861771 -11.28744385 362.07973541 -11.27453613 362.92573547 C-11.11376684 373.53372889 -10.96029485 384.14181787 -10.8125 394.75 C-10.80062275 395.60216599 -10.7887455 396.45433197 -10.77650833 397.33232117 C-10.32368844 430.03641986 -10.18516612 462.73030661 -10.3125 495.4375 C-14.80263854 494.66854952 -18.03860171 493.04548085 -21.8125 490.5625 C-22.42053467 490.16538818 -23.02856934 489.76827637 -23.6550293 489.35913086 C-47.76860646 473.24703294 -64.89627832 449.8632881 -71.3125 421.4375 C-73.79592619 407.57343386 -73.65859377 393.63275593 -73.7265625 379.59375 C-73.74530831 377.12796404 -73.76488416 374.66218426 -73.7852478 372.19641113 C-73.83621472 365.75880609 -73.87602845 359.32118034 -73.91339111 352.88348389 C-73.95365494 346.29336573 -74.00464432 339.70333111 -74.0546875 333.11328125 C-74.15102627 320.22141417 -74.23592866 307.32949889 -74.3125 294.4375 C-75.14394531 294.870625 -75.14394531 294.870625 -75.9921875 295.3125 C-76.71664062 295.68375 -77.44109375 296.055 -78.1875 296.4375 C-78.90679687 296.80875 -79.62609375 297.18 -80.3671875 297.5625 C-82.3125 298.4375 -82.3125 298.4375 -84.3125 298.4375 C-84.29997192 299.01677246 -84.28744385 299.59604492 -84.27453613 300.19287109 C-83.58370392 332.5069004 -83.2156159 364.80394378 -83.25 397.125 C-83.25085602 397.93545776 -83.25171204 398.74591553 -83.25259399 399.58093262 C-83.26389486 409.53314562 -83.28383623 419.4853213 -83.3125 429.4375 C-87.70981263 427.8031539 -90.87110876 425.56849333 -94.375 422.5 C-94.94081787 422.01055908 -95.50663574 421.52111816 -96.08959961 421.0168457 C-97.83723566 419.49784958 -99.57483153 417.96787811 -101.3125 416.4375 C-101.83328125 415.98665039 -102.3540625 415.53580078 -102.890625 415.07128906 C-123.05913243 397.5927823 -139.59074355 376.64298721 -141.76733398 349.30200195 C-141.96910478 346.34808814 -142.14325728 343.39345768 -142.3125 340.4375 C-142.51522743 337.07588736 -142.71830198 333.71431619 -142.92706299 330.35307312 C-143.14108804 326.90578398 -143.34626466 323.45865719 -143.52832031 320.00952148 C-143.63805176 318.10601929 -143.63805176 318.10601929 -143.75 316.1640625 C-143.81058594 315.03564941 -143.87117188 313.90723633 -143.93359375 312.74462891 C-144.63449162 306.62712724 -145.75973572 302.30470395 -150.375 298.125 C-155.21788922 293.66744012 -155.21788922 293.66744012 -155.5625 289.1875 C-155.11220219 282.43303284 -151.24736001 277.75539946 -147.1875 272.625 C-146.73246094 272.04041016 -146.27742188 271.45582031 -145.80859375 270.85351562 C-142.52802579 266.65302579 -142.52802579 266.65302579 -141.3125 265.4375 C-153.36906786 266.59678537 -167.35261437 273.18028495 -175.3125 282.4375 C-180.07511506 289.65823896 -179.54355899 297.25569256 -178.3125 305.4375 C-190.23631074 305.14731877 -200.69337369 300.69678207 -209.3125 292.4375 C-219.09375646 281.54026126 -221.61657065 270.12453055 -221.68359375 255.80078125 C-221.69262222 254.60317673 -221.7016507 253.4055722 -221.71095276 252.17167664 C-221.7254062 249.65117884 -221.73432973 247.13064394 -221.73803711 244.61010742 C-221.7499944 240.75180711 -221.79928274 236.89507567 -221.84960938 233.03710938 C-221.85906754 230.58334111 -221.86630547 228.12956307 -221.87109375 225.67578125 C-221.90039223 223.94754875 -221.90039223 223.94754875 -221.93028259 222.18440247 C-221.88507507 214.18873813 -221.88507507 214.18873813 -218.9206543 210.29931641 C-218.05996338 209.68491699 -217.19927246 209.07051758 -216.3125 208.4375 C-215.55710937 207.76847656 -214.80171875 207.09945312 -214.0234375 206.41015625 C-199.38202965 194.4375 -199.38202965 194.4375 -192.3125 194.4375 C-192.56 192.7359375 -192.56 192.7359375 -192.8125 191 C-193.31413608 186.23445726 -193.56040196 181.4757135 -193.6875 176.6875 C-193.72552734 175.95474854 -193.76355469 175.22199707 -193.80273438 174.46704102 C-193.86035442 170.75520839 -193.51342658 168.72087853 -191.3515625 165.671875 C-187.54380678 162.87234252 -183.70358855 161.13606124 -179.3125 159.4375 C-178.30413086 159.04667236 -178.30413086 159.04667236 -177.27539062 158.64794922 C-175.2112801 157.87008723 -173.13873377 157.11987274 -171.0625 156.375 C-162.49358972 153.25887303 -153.96099123 150.05039089 -145.4375 146.8125 C-144.23834961 146.35738037 -143.03919922 145.90226074 -141.80371094 145.43334961 C-139.4649925 144.54465593 -137.12708174 143.65383341 -134.79003906 142.76074219 C-132.39963372 141.85116644 -130.00551788 140.95130127 -127.60839844 140.05957031 C-126.43567383 139.61967773 -125.26294922 139.17978516 -124.0546875 138.7265625 C-122.47083252 138.1380249 -122.47083252 138.1380249 -120.85498047 137.53759766 C-118.20633814 136.57678159 -118.20633814 136.57678159 -116.3125 134.4375 C-115.73899006 128.33092257 -116.82797575 124.36556014 -119.8125 119 C-120.55415849 117.59614643 -121.29367461 116.19115934 -122.03125 114.78515625 C-122.41152344 114.06859863 -122.79179687 113.35204102 -123.18359375 112.61376953 C-125.00314526 109.10609606 -126.65448731 105.52360702 -128.3125 101.9375 C-130.95355593 96.26583076 -133.68344712 90.64900716 -136.5 85.0625 C-137.15925451 83.74238735 -137.81812089 82.42208079 -138.4765625 81.1015625 C-139.61771055 78.8133291 -140.77928361 76.54154094 -141.9609375 74.2734375 C-146.31353906 65.54418686 -146.31353906 65.54418686 -145.2265625 60.34375 C-143.62349667 57.00060418 -141.02550534 54.7267954 -138.30859375 52.26171875 C-136.14111017 50.38194008 -136.14111017 50.38194008 -134.0625 47.5625 C-132.16758955 45.26153731 -131.17366 44.25497429 -128.3125 43.4375 C-123.40609307 43.89883046 -119.36849768 45.02022264 -114.84765625 46.94921875 C-113.64343018 47.45678711 -112.4392041 47.96435547 -111.19848633 48.48730469 C-110.5737442 48.75490601 -109.94900208 49.02250732 -109.30532837 49.29821777 C-106.04895653 50.69295994 -102.78192072 52.0622918 -99.515625 53.43359375 C-98.87977982 53.70128571 -98.24393463 53.96897766 -97.58882141 54.24478149 C-92.97483111 56.18044207 -88.33183615 57.99227012 -83.625 59.6875 C-77.11411438 62.05060583 -70.84151956 64.81791915 -64.59887695 67.81152344 C-59.11489603 70.35835332 -53.47256522 72.56107875 -47.5 70.4375 C-44.68237693 67.86138748 -43.68961685 64.90927574 -42.3125 61.4375 C-41.83772217 60.24890381 -41.36294434 59.06030762 -40.8737793 57.83569336 C-40.37711132 56.56662703 -39.88146464 55.29716064 -39.38671875 54.02734375 C-38.83144149 52.61000203 -38.27610085 51.19268514 -37.72070312 49.77539062 C-36.86444297 47.58668359 -36.00886372 45.397716 -35.15454102 43.20825195 C-31.76269612 34.52114674 -28.28035416 25.89470821 -24.54248047 17.35009766 C-23.49844376 14.87781542 -22.59926883 12.41809159 -21.75 9.875 C-17.3281613 -0.69896211 -10.0110819 0.14988197 0 0 Z " fill="#F9A11E" transform="translate(302.3125,381.5625)"/>
<path d="M0 0 C1.20591797 -0.03287109 2.41183594 -0.06574219 3.65429688 -0.09960938 C5.38583008 -0.11024414 5.38583008 -0.11024414 7.15234375 -0.12109375 C8.21316162 -0.13454834 9.27397949 -0.14800293 10.36694336 -0.16186523 C13.0625 0.4375 13.0625 0.4375 14.88623047 2.82275391 C17.8454893 9.40093201 18.32647121 16.31027737 18.0625 23.4375 C18.65675781 23.53546875 19.25101562 23.6334375 19.86328125 23.734375 C25.76343011 24.79878755 31.07401816 26.44370939 36.6171875 28.73046875 C39.38597262 29.53102803 40.42567441 29.53574563 43.0625 28.4375 C44.7448668 27.34601325 46.38883983 26.1940956 48 25 C52.71631699 21.50832174 56.09668305 19.4375 62.0625 19.4375 C62.0625 20.0975 62.0625 20.7575 62.0625 21.4375 C62.59230469 21.65148437 63.12210938 21.86546875 63.66796875 22.0859375 C66.99451396 23.96356335 69.63304701 26.4408937 72.375 29.0625 C73.21901367 29.80693359 73.21901367 29.80693359 74.08007812 30.56640625 C76.32005073 32.72138602 77.92730442 34.27036856 78.29394531 37.43554688 C77.8876356 41.72504548 76.53860707 45.06141447 74.1875 48.6875 C73.67445313 49.49703125 73.16140625 50.3065625 72.6328125 51.140625 C71.0625 53.4375 71.0625 53.4375 69.359375 55.5234375 C67.7325025 57.51841942 67.7325025 57.51841942 68.1875 60.8125 C68.92118205 64.44764991 68.92118205 64.44764991 70.625 67.5625 C72.1366727 70.58584541 72.19022329 72.13890709 72.0625 75.4375 C72.88492188 75.46328125 73.70734375 75.4890625 74.5546875 75.515625 C90.97490876 76.34990876 90.97490876 76.34990876 96.0625 81.4375 C96.34356557 85.55553643 96.29432165 89.68601451 96.3125 93.8125 C96.3434375 95.55660156 96.3434375 95.55660156 96.375 97.3359375 C96.38273437 99.0065625 96.38273437 99.0065625 96.390625 100.7109375 C96.3999707 101.73622559 96.40931641 102.76151367 96.41894531 103.81787109 C96.0625 106.4375 96.0625 106.4375 94.75683594 108.22900391 C91.12406821 110.82009904 86.48803315 111.46964067 82.1171875 111.37109375 C78.44919219 111.449234 76.31201248 111.67753212 73.0625 113.4375 C69.43916269 118.56385131 67.01825958 125.24648241 66.0625 131.4375 C67.1580846 136.90759741 71.55145172 140.66168553 75.1640625 144.71875 C77.3111754 147.79362773 77.51701851 148.79444962 77.0625 152.4375 C75.70141602 154.45800781 75.70141602 154.45800781 73.81640625 156.390625 C73.14416016 157.091875 72.47191406 157.793125 71.77929688 158.515625 C71.06837891 159.23234375 70.35746094 159.9490625 69.625 160.6875 C68.91794922 161.4196875 68.21089844 162.151875 67.48242188 162.90625 C61.17708582 169.42276956 61.17708582 169.42276956 57.90234375 169.84375 C52.88246436 169.31265391 51.04743373 167.43293419 47.625 163.9375 C47.08423828 163.41285156 46.54347656 162.88820313 45.98632812 162.34765625 C44.66321678 161.05967176 43.36068391 159.75060556 42.0625 158.4375 C35.72893538 160.4431288 29.66353131 162.80946729 23.56640625 165.44921875 C21.0625 166.4375 21.0625 166.4375 19.0625 166.4375 C18.88074219 167.58025391 18.88074219 167.58025391 18.6953125 168.74609375 C17.89563118 173.67336093 17.08691504 178.60150826 16.125 183.5 C15.99222656 184.19222656 15.85945313 184.88445312 15.72265625 185.59765625 C14.87837382 187.95065639 14.03976874 188.89441529 12.0625 190.4375 C7.92728496 191.10849716 3.7460939 190.94684881 -0.4375 190.9375 C-1.59121094 190.96585938 -2.74492187 190.99421875 -3.93359375 191.0234375 C-5.03832031 191.02601563 -6.14304687 191.02859375 -7.28125 191.03125 C-8.29380859 191.03833984 -9.30636719 191.04542969 -10.34960938 191.05273438 C-12.9375 190.4375 -12.9375 190.4375 -14.71801758 188.14306641 C-15.72020829 185.91958744 -16.53204771 183.91468771 -17.10546875 181.5546875 C-17.27626953 180.86246094 -17.44707031 180.17023438 -17.62304688 179.45703125 C-17.78869141 178.74933594 -17.95433594 178.04164063 -18.125 177.3125 C-18.39086914 176.23935547 -18.39086914 176.23935547 -18.66210938 175.14453125 C-19.38127029 172.17348037 -19.9375 169.50502383 -19.9375 166.4375 C-20.79214844 166.18355469 -21.64679688 165.92960938 -22.52734375 165.66796875 C-27.29754319 163.94676277 -31.45490896 161.36425256 -35.81640625 158.80078125 C-38.7511357 157.27630078 -38.7511357 157.27630078 -41.43359375 157.4140625 C-45.57605466 159.10723685 -48.7480209 162.06335478 -52.12109375 164.93164062 C-56.30837559 168.34550688 -56.30837559 168.34550688 -59.37182617 168.79345703 C-62.67670359 168.33494421 -63.79081334 167.22889975 -66.14453125 164.89453125 C-66.89541016 164.15009766 -67.64628906 163.40566406 -68.41992188 162.63867188 C-69.18884766 161.85041016 -69.95777344 161.06214844 -70.75 160.25 C-71.93239258 159.09661133 -71.93239258 159.09661133 -73.13867188 157.91992188 C-73.88310547 157.16904297 -74.62753906 156.41816406 -75.39453125 155.64453125 C-76.07491455 154.9585083 -76.75529785 154.27248535 -77.45629883 153.56567383 C-79.29659728 150.92155291 -79.44267413 149.59782656 -78.9375 146.4375 C-77.78833008 144.63574219 -77.78833008 144.63574219 -76.20703125 142.984375 C-75.65208984 142.36433594 -75.09714844 141.74429688 -74.52539062 141.10546875 C-73.34410636 139.82931787 -72.14870032 138.56609214 -70.93945312 137.31640625 C-69.24575479 135.39490053 -67.966777 133.78658028 -66.9375 131.4375 C-67.24743118 128.13458382 -68.59385153 125.44134571 -69.9375 122.4375 C-70.52553705 120.59127339 -71.08859984 118.73688484 -71.625 116.875 C-71.87636719 116.02808594 -72.12773437 115.18117188 -72.38671875 114.30859375 C-72.56847656 113.69113281 -72.75023437 113.07367187 -72.9375 112.4375 C-73.86816284 112.32474731 -73.86816284 112.32474731 -74.81762695 112.2097168 C-77.63024421 111.86139773 -80.43995088 111.49344088 -83.25 111.125 C-84.22646484 111.00705078 -85.20292969 110.88910156 -86.20898438 110.76757812 C-87.14677734 110.64189453 -88.08457031 110.51621094 -89.05078125 110.38671875 C-90.34689331 110.22175903 -90.34689331 110.22175903 -91.66918945 110.0534668 C-94.36276589 109.32201772 -95.36790734 108.74679659 -96.9375 106.4375 C-97.32568359 103.84960938 -97.32568359 103.84960938 -97.3359375 100.78125 C-97.33980469 99.67652344 -97.34367188 98.57179688 -97.34765625 97.43359375 C-97.33605469 96.27988281 -97.32445312 95.12617187 -97.3125 93.9375 C-97.32410156 92.78378906 -97.33570313 91.63007812 -97.34765625 90.44140625 C-97.34378906 89.33667969 -97.33992187 88.23195313 -97.3359375 87.09375 C-97.33255371 86.08119141 -97.32916992 85.06863281 -97.32568359 84.02539062 C-96.9375 81.4375 -96.9375 81.4375 -95.7043457 79.64331055 C-93.52092202 78.15320006 -91.88584885 77.83823456 -89.26953125 77.48828125 C-87.93051758 77.29975586 -87.93051758 77.29975586 -86.56445312 77.10742188 C-85.17129883 76.93049805 -85.17129883 76.93049805 -83.75 76.75 C-82.80962891 76.62044922 -81.86925781 76.49089844 -80.90039062 76.35742188 C-78.58070891 76.03949595 -76.26008529 75.73333237 -73.9375 75.4375 C-73.55658203 74.22513672 -73.55658203 74.22513672 -73.16796875 72.98828125 C-72.82378906 71.91964844 -72.47960937 70.85101562 -72.125 69.75 C-71.78855469 68.69425781 -71.45210937 67.63851562 -71.10546875 66.55078125 C-69.9375 63.4375 -69.9375 63.4375 -68.17578125 60.79296875 C-66.67458735 58.5753399 -66.67458735 58.5753399 -67.42578125 56.51953125 C-69.95916024 53.03040722 -72.72661425 49.72018158 -75.56835938 46.47851562 C-78.02318844 43.46948492 -78.92916745 41.75726155 -79.03125 37.83984375 C-77.7570587 33.87619866 -76.283752 32.13311845 -73.25 29.3125 C-72.3425 28.46816406 -71.435 27.62382812 -70.5 26.75390625 C-69.654375 25.98949219 -68.80875 25.22507812 -67.9375 24.4375 C-67.36 23.84839844 -66.7825 23.25929688 -66.1875 22.65234375 C-64.75 21.25 -64.75 21.25 -61.9375 19.4375 C-56.23125077 19.61875733 -53.43811181 21.16162744 -49.25 24.9375 C-45.16571899 28.87576587 -45.16571899 28.87576587 -39.9375 30.4375 C-38.32356142 29.52965955 -36.71461853 28.61063838 -35.14453125 27.62890625 C-30.50100377 25.12222328 -24.27150389 22.4375 -18.9375 22.4375 C-18.90011719 21.74785156 -18.86273438 21.05820312 -18.82421875 20.34765625 C-17.74596017 4.93490125 -15.75362357 0.07553682 0 0 Z " fill="#FEFCF3" transform="translate(299.9375,470.5625)"/>
<path d="M0 0 C5.09356934 0.52730784 8.85982125 2.79066465 13.296875 5.2421875 C14.15925781 5.70238281 15.02164063 6.16257812 15.91015625 6.63671875 C22.22680166 10.04711416 22.22680166 10.04711416 24.546875 12.3671875 C24.81417465 14.16600609 24.81417465 14.16600609 24.83880615 16.38339233 C24.85285995 17.22389633 24.86691376 18.06440033 24.88139343 18.93037415 C24.88669571 19.85488876 24.89199799 20.77940338 24.89746094 21.73193359 C24.91071915 22.70471756 24.92397736 23.67750153 24.93763733 24.67976379 C24.97891631 27.91668775 25.00554321 31.15354246 25.03125 34.390625 C25.05505478 36.64914525 25.079416 38.9076597 25.10430908 41.16616821 C25.15435058 45.91933577 25.1970799 50.67250095 25.23486328 55.42578125 C25.28350035 61.46392726 25.35063696 67.50169209 25.42361069 73.53958702 C25.47787788 78.21725168 25.52156694 82.89497286 25.56232452 87.57277298 C25.58298095 89.79472767 25.60686675 92.01665511 25.63426971 94.23853683 C26.35022586 154.66703103 26.35022586 154.66703103 8.546875 174.3671875 C5.0212949 177.53962101 1.26786499 180.42783943 -2.453125 183.3671875 C-3.44699219 184.17671875 -4.44085938 184.98625 -5.46484375 185.8203125 C-14.37651362 192.93175797 -24.5455257 200.73132107 -35.453125 204.3671875 C-36.21535784 180.50023138 -36.6405624 156.62971169 -36.98222733 132.75366974 C-37.01526044 130.45505578 -37.04892983 128.15645187 -37.08273315 125.85784912 C-37.20768123 117.30121664 -37.31512832 108.74462805 -37.40551758 100.18756104 C-37.45038269 96.58725103 -37.51745117 92.98802799 -37.58984375 89.38818359 C-37.61909802 87.32780803 -37.64778732 85.26742432 -37.67578125 83.20703125 C-37.70031876 82.30356461 -37.72485626 81.40009796 -37.75013733 80.46925354 C-37.82878141 71.99867944 -34.76882516 66.5951081 -30.453125 59.3671875 C-29.44541194 57.05475121 -28.48843429 54.71967219 -27.578125 52.3671875 C-27.09039741 51.11566951 -26.60209235 49.86437645 -26.11328125 48.61328125 C-25.85305176 47.94409668 -25.59282227 47.27491211 -25.32470703 46.58544922 C-22.48670483 39.36245537 -19.51585459 32.1914385 -16.54931641 25.02050781 C-15.84494352 23.31558029 -15.14381895 21.60930513 -14.44677734 19.90136719 C-13.54474138 17.69700812 -12.6267017 15.50009173 -11.703125 13.3046875 C-11.4460376 12.66861572 -11.1889502 12.03254395 -10.92407227 11.37719727 C-9.12129298 7.16230504 -6.8412222 4.42432819 -3.453125 1.3671875 C-2.453125 0.3671875 -2.453125 0.3671875 0 0 Z " fill="#D92527" transform="translate(354.453125,667.6328125)"/>
<path d="M0 0 C4.8702219 3.78795037 6.52852713 8.5745137 8.625 14.1875 C8.93026611 14.98937744 9.23553223 15.79125488 9.55004883 16.61743164 C10.16653428 18.23750558 10.78058002 19.85851017 11.39208984 21.48046875 C12.55499302 24.55683412 13.74726205 27.62162391 14.9375 30.6875 C16.42228543 34.54697483 17.85779043 38.41875052 19.25 42.3125 C21.38058406 48.21257894 23.76302128 53.99201199 26.25 59.75 C26.745 60.905 27.24 62.06 27.75 63.25 C30.26741821 67.44569702 33.49652418 69.51938508 37.921875 71.36328125 C39.02015625 71.82089844 40.1184375 72.27851562 41.25 72.75 C41.4246256 84.02072078 41.59075273 95.29155201 41.75 106.5625 C41.76187725 107.40278873 41.7737545 108.24307747 41.78599167 109.1088295 C42.24299769 141.65825799 42.37624051 174.19741062 42.25 206.75 C37.75986146 205.98104952 34.52389829 204.35798085 30.75 201.875 C30.14196533 201.47788818 29.53393066 201.08077637 28.9074707 200.67163086 C4.7882916 184.55578986 -12.32406318 161.17707744 -18.75 132.75 C-21.30516649 118.73567597 -21.00788779 104.66141106 -20.9453125 90.46875 C-20.94157483 87.95813104 -20.93873143 85.4475106 -20.93673706 82.93688965 C-20.92915998 76.38083758 -20.90956341 69.82487642 -20.8873291 63.26885986 C-20.86563485 56.55816415 -20.85770801 49.84743981 -20.84765625 43.13671875 C-20.82631109 30.00777408 -20.7926414 16.87889191 -20.75 3.75 C-19.480447 3.10165346 -18.20930294 2.45642185 -16.9375 1.8125 C-16.22980469 1.45285156 -15.52210938 1.09320312 -14.79296875 0.72265625 C-9.80824086 -1.65056984 -5.12926943 -2.33148611 0 0 Z " fill="#D92627" transform="translate(249.75,670.25)"/>
<path d="M0 0 C29.72170686 0 29.72170686 0 38.8828125 8.54296875 C47.94181879 19.05609598 48.70151529 30.52570043 48.19238281 43.69628906 C47.72896305 49.24556425 46.05250188 54.77456004 42.23828125 58.91015625 C41.82964844 59.59980469 41.42101562 60.28945313 41 61 C43.97582855 69.92748565 48.13830582 78.41845739 52 87 C52.33 58.29 52.66 29.58 53 0 C59.93 0 66.86 0 74 0 C76.69112379 5.38224758 79.19525904 10.66509684 81.453125 16.21875 C81.72431152 16.87907227 81.99549805 17.53939453 82.27490234 18.21972656 C83.26994754 20.64511434 84.25967895 23.07267945 85.25 25.5 C87.4775 30.945 89.705 36.39 92 42 C92.33 28.14 92.66 14.28 93 0 C99.6 0 106.2 0 113 0 C113 31.68 113 63.36 113 96 C105.74 96 98.48 96 91 96 C88.900282 90.82222825 86.80063567 85.64442755 84.70117188 80.46655273 C83.98734684 78.70611898 83.27348008 76.94570213 82.55957031 75.18530273 C81.53179051 72.65092371 80.50416212 70.11648334 79.4765625 67.58203125 C78.99988632 66.40674614 78.99988632 66.40674614 78.51358032 65.2077179 C78.06334 64.09713264 78.06334 64.09713264 77.60400391 62.96411133 C77.34197174 62.31791336 77.07993958 61.67171539 76.80996704 61.00593567 C75.8678846 58.67280769 74.93447426 56.33618564 74 54 C73.67 67.86 73.34 81.72 73 96 C59.47 96 45.94 96 32 96 C29.69 91.05 27.38 86.1 25 81 C24.01 79.02 23.02 77.04 22 75 C22 74.34 22 73.68 22 73 C21.34 73 20.68 73 20 73 C20 80.59 20 88.18 20 96 C13.4 96 6.8 96 0 96 C0 64.32 0 32.64 0 0 Z M20 25 C20 32.26 20 39.52 20 47 C25.20180777 44.91927689 26.01876607 44.42371831 28.33203125 39.86328125 C29.42408608 36.81702303 29.09174417 35.01835153 28 32 C25.81135111 28.64250278 23.90871929 26.30290643 20 25 Z " fill="#FAA21F" transform="translate(621,605)"/>
<path d="M0 0 C0.94552734 1.11955078 0.94552734 1.11955078 1.91015625 2.26171875 C5.4852293 5.81927307 9.75736783 7.16053634 14.4375 8.8125 C15.35184814 9.14797852 16.26619629 9.48345703 17.20825195 9.82910156 C20.13417829 10.89941065 23.06664455 11.95024345 26 13 C28.94957784 14.06997342 31.89781535 15.14357927 34.84594727 16.2175293 C36.68370265 16.88527288 38.52265897 17.54972445 40.36303711 18.21020508 C44.71522912 19.77597528 49.02983865 21.39850248 53.31640625 23.13671875 C56.59489266 24.46200275 59.83215672 25.63828728 63.25 26.5625 C68.03927307 27.94807586 72.41289244 29.41289244 76 33 C76.8466798 37.84973207 75.93169176 40.56634732 73.21875 44.48828125 C71.99655268 46.10960758 70.75606708 47.71726935 69.5 49.3125 C68.8615918 50.149021 68.22318359 50.98554199 67.56542969 51.84741211 C65.72767872 54.2457657 63.8682955 56.6254027 62 59 C61.29907227 59.90008789 61.29907227 59.90008789 60.58398438 60.81835938 C55.52217454 67.31717423 52.5955004 70.98036446 44.5625 73.25 C33.18153414 76.65562922 21.82312338 81.68752261 15.0625 91.9375 C12.66651268 98.8435811 12.93052406 104.89209834 14 112 C2.07618926 111.70981877 -8.38087369 107.25928207 -17 99 C-26.78125646 88.10276126 -29.30407065 76.68703055 -29.37109375 62.36328125 C-29.38012222 61.16567673 -29.3891507 59.9680722 -29.39845276 58.73417664 C-29.4129062 56.21367884 -29.42182973 53.69314394 -29.42553711 51.17260742 C-29.4374944 47.31430711 -29.48678274 43.45757567 -29.53710938 39.59960938 C-29.54656754 37.14584111 -29.55380547 34.69206307 -29.55859375 32.23828125 C-29.57812607 31.08612625 -29.59765839 29.93397125 -29.61778259 28.74690247 C-29.57256629 20.74968651 -29.57256629 20.74968651 -26.6015625 16.85961914 C-25.74304688 16.24594482 -24.88453125 15.63227051 -24 15 C-23.27941406 14.34257813 -22.55882813 13.68515625 -21.81640625 13.0078125 C-15.07596179 7.37714659 -7.92001069 3.65187813 0 0 Z " fill="#CE2128" transform="translate(110,575)"/>
<path d="M0 0 C4.99411897 0.43218337 9.14580542 2.89007955 13.5 5.1875 C14.61955078 5.74920898 14.61955078 5.74920898 15.76171875 6.32226562 C21.26368336 9.2095798 25.1561528 12.3123056 28 18 C28.11069753 19.66721157 28.15915683 21.33873427 28.17700195 23.00952148 C28.19625481 24.57771889 28.19625481 24.57771889 28.21589661 26.17759705 C28.22328354 27.31395096 28.23067047 28.45030487 28.23828125 29.62109375 C28.246353 30.79076187 28.25442474 31.96042999 28.26274109 33.1655426 C28.2765971 35.64965325 28.28731243 38.13378305 28.29516602 40.61791992 C28.31228825 44.39083945 28.35615148 48.16286208 28.40039062 51.93554688 C28.41052546 54.35155607 28.41903908 56.76757271 28.42578125 59.18359375 C28.44328934 60.30172958 28.46079742 61.41986542 28.47883606 62.57188416 C28.4470811 74.22759522 25.09866933 83.51884731 17 92 C7.41057684 100.90594375 -4.95606263 106.18581107 -18 106 C-17.95359375 105.154375 -17.9071875 104.30875 -17.859375 103.4375 C-17.47957419 93.49474095 -17.47957419 93.49474095 -22 85 C-29.07383754 78.73985064 -37.75271914 74.68980231 -46.6875 71.8125 C-51.81103651 69.00905549 -54.63613798 64.66244508 -58 60 C-59.07415598 58.52860001 -60.1483798 57.05724954 -61.22265625 55.5859375 C-63.99940233 51.7680096 -66.76069012 47.93954137 -69.49804688 44.09326172 C-70.48644096 42.7157437 -71.4874947 41.34720719 -72.50195312 39.98876953 C-75.98688475 35.28853559 -75.98688475 35.28853559 -76.125 32.25 C-73.26121064 26.52242128 -64.76659112 24.88911526 -59.125 22.8125 C-58.07014404 22.42030273 -57.01528809 22.02810547 -55.9284668 21.62402344 C-47.62546706 18.55491968 -39.2748389 15.63272652 -30.90625 12.74829102 C-14.33773876 8.23621174 -14.33773876 8.23621174 0 0 Z " fill="#CE2028" transform="translate(488,577)"/>
<path d="M0 0 C0.71151828 32.89914095 1.09750686 65.7810486 1.0625 98.6875 C1.06121597 99.90318665 1.06121597 99.90318665 1.05990601 101.14343262 C1.04860514 111.09564562 1.02866377 121.0478213 1 131 C-3.39731263 129.3656539 -6.55860876 127.13099333 -10.0625 124.0625 C-10.91122681 123.32833862 -10.91122681 123.32833862 -11.77709961 122.5793457 C-13.52473566 121.06034958 -15.26233153 119.53037811 -17 118 C-17.52078125 117.54915039 -18.0415625 117.09830078 -18.578125 116.63378906 C-38.58615926 99.29435215 -55.29525819 78.3253419 -57.45043945 51.16113281 C-57.65484872 48.10840217 -57.82847143 45.05476013 -58 42 C-58.08750459 40.54683198 -58.17577211 39.09370977 -58.26464844 37.640625 C-58.88760054 27.42938857 -59.46126701 17.21600584 -60 7 C-55.71635539 7.83000196 -54.1587316 9.68802141 -51.3125 13 C-50.13107422 14.36125 -50.13107422 14.36125 -48.92578125 15.75 C-48.29027344 16.4925 -47.65476563 17.235 -47 18 C-45.83622098 19.38142556 -45.83622098 19.38142556 -42.625 19.25 C-39.11674151 19.41359143 -39.11674151 19.41359143 -37.72265625 17.68359375 C-35.17998348 15.19857796 -32.05241254 14.14357889 -28.8125 12.8125 C-20.35160365 9.23326552 -12.17703184 5.18027812 -4 1 C-2 0 -2 0 0 0 Z " fill="#D92627" transform="translate(218,680)"/>
<path d="M0 0 C6.93 0 13.86 0 21 0 C23.69112379 5.38224758 26.19525904 10.66509684 28.453125 16.21875 C28.72431152 16.87907227 28.99549805 17.53939453 29.27490234 18.21972656 C30.26994754 20.64511434 31.25967895 23.07267945 32.25 25.5 C34.4775 30.945 36.705 36.39 39 42 C39.33 28.14 39.66 14.28 40 0 C46.6 0 53.2 0 60 0 C60 31.68 60 63.36 60 96 C52.74 96 45.48 96 38 96 C35.900282 90.82222825 33.80063567 85.64442755 31.70117188 80.46655273 C30.98734684 78.70611898 30.27348008 76.94570213 29.55957031 75.18530273 C28.53179051 72.65092371 27.50416212 70.11648334 26.4765625 67.58203125 C25.99988632 66.40674614 25.99988632 66.40674614 25.51358032 65.2077179 C25.2134201 64.46732773 24.91325989 63.72693756 24.60400391 62.96411133 C24.34197174 62.31791336 24.07993958 61.67171539 23.80996704 61.00593567 C22.8678846 58.67280769 21.93447426 56.33618564 21 54 C20.67 67.86 20.34 81.72 20 96 C13.4 96 6.8 96 0 96 C0 64.32 0 32.64 0 0 Z " fill="#FAA21F" transform="translate(801,605)"/>
<path d="M0 0 C1.27458296 36.30273732 1.27458296 36.30273732 -6 53 C-6.3103418 53.72445312 -6.62068359 54.44890625 -6.94042969 55.1953125 C-10.91155712 64.23053821 -15.80891301 72.28962786 -22 80 C-22.77537109 81.03833984 -22.77537109 81.03833984 -23.56640625 82.09765625 C-30.66576172 91.04747029 -41.34414341 98.09285258 -52 102 C-52.66 102 -53.32 102 -54 102 C-55.05985255 81.29698875 -55.12457178 60.63407842 -55.06866455 39.91113281 C-55.05823206 35.61914581 -55.05382534 31.32715241 -55.04882812 27.03515625 C-55.03826565 18.6900873 -55.02131626 10.3450484 -55 2 C-51.58029523 3.34616555 -48.33861733 4.80319909 -45.09375 6.53125 C-44.18496094 7.01207031 -43.27617187 7.49289062 -42.33984375 7.98828125 C-40.44661458 8.99609375 -38.55338542 10.00390625 -36.66015625 11.01171875 C-35.75136719 11.49253906 -34.84257812 11.97335937 -33.90625 12.46875 C-33.08447266 12.90638672 -32.26269531 13.34402344 -31.41601562 13.79492188 C-26.14156803 16.42574982 -22.85638735 17.79861418 -17 16 C-14.07153627 13.58958646 -11.65332074 10.81061054 -9.1875 7.9375 C-7.87299164 6.44264363 -6.55420116 4.95153817 -5.23046875 3.46484375 C-4.65707764 2.800896 -4.08368652 2.13694824 -3.49291992 1.45288086 C-2 0 -2 0 0 0 Z " fill="#D92627" transform="translate(445,683)"/>
<path d="M0 0 C6.27 0 12.54 0 19 0 C24.22326184 20.52863374 29.27106717 41.09738475 34.17373657 61.70504761 C34.76602565 64.19242582 35.36024251 66.67934579 35.95639038 69.165802 C36.80085165 72.69123738 37.63779056 76.21837539 38.47265625 79.74609375 C38.7284848 80.80923798 38.98431335 81.8723822 39.24789429 82.96774292 C39.47941193 83.95348297 39.71092957 84.93922302 39.94946289 85.95483398 C40.15326065 86.81221664 40.35705841 87.6695993 40.56703186 88.55296326 C41 91 41 91 41 96 C34.4 96 27.8 96 21 96 C18 87 18 87 18 85 C12.06 85.33 6.12 85.66 0 86 C-0.99 89.3 -1.98 92.6 -3 96 C-9.6 96 -16.2 96 -23 96 C-22.44606699 85.94119775 -19.8096302 76.44236231 -17.34375 66.71875 C-16.87619927 64.85467085 -16.40920795 62.99045129 -15.94274902 61.12609863 C-14.96857561 57.23856806 -13.98981667 53.35223318 -13.00732422 49.46679688 C-11.74652121 44.48044318 -10.49402349 39.49205165 -9.24449921 34.50286102 C-8.28235898 30.66259623 -7.31755617 26.82300489 -6.35176086 22.98365784 C-5.88882139 21.14330559 -5.42632605 19.30284156 -4.96427917 17.46226501 C-4.32044965 14.90064542 -3.67344 12.3398517 -3.02539062 9.77929688 C-2.83419144 9.01673584 -2.64299225 8.2541748 -2.44599915 7.46850586 C-1.11470615 2.22941231 -1.11470615 2.22941231 0 0 Z M9 49 C8.49440092 50.43554025 7.9957251 51.8735202 7.5 53.3125 C7.2215625 54.11300781 6.943125 54.91351562 6.65625 55.73828125 C5.86066893 58.08769422 5.86066893 58.08769422 6 61 C7.98 61 9.96 61 12 61 C11.87625 59.7625 11.7525 58.525 11.625 57.25 C11.52058594 56.20585938 11.52058594 56.20585938 11.4140625 55.140625 C10.96467035 52.8173524 10.14225762 51.0616357 9 49 Z " fill="#FAA21F" transform="translate(928,605)"/>
<path d="M0 0 C6.27 0 12.54 0 19 0 C24.22326184 20.52863374 29.27106717 41.09738475 34.17373657 61.70504761 C34.76602565 64.19242582 35.36024251 66.67934579 35.95639038 69.165802 C36.80085165 72.69123738 37.63779056 76.21837539 38.47265625 79.74609375 C38.7284848 80.80923798 38.98431335 81.8723822 39.24789429 82.96774292 C39.47941193 83.95348297 39.71092957 84.93922302 39.94946289 85.95483398 C40.15326065 86.81221664 40.35705841 87.6695993 40.56703186 88.55296326 C41 91 41 91 41 96 C34.4 96 27.8 96 21 96 C18 87 18 87 18 85 C12.06 85.33 6.12 85.66 0 86 C-0.99 89.3 -1.98 92.6 -3 96 C-9.6 96 -16.2 96 -23 96 C-22.44606699 85.94119775 -19.8096302 76.44236231 -17.34375 66.71875 C-16.87619927 64.85467085 -16.40920795 62.99045129 -15.94274902 61.12609863 C-14.96857561 57.23856806 -13.98981667 53.35223318 -13.00732422 49.46679688 C-11.74652121 44.48044318 -10.49402349 39.49205165 -9.24449921 34.50286102 C-8.28235898 30.66259623 -7.31755617 26.82300489 -6.35176086 22.98365784 C-5.88882139 21.14330559 -5.42632605 19.30284156 -4.96427917 17.46226501 C-4.32044965 14.90064542 -3.67344 12.3398517 -3.02539062 9.77929688 C-2.83419144 9.01673584 -2.64299225 8.2541748 -2.44599915 7.46850586 C-1.11470615 2.22941231 -1.11470615 2.22941231 0 0 Z M9 49 C8.49440092 50.43554025 7.9957251 51.8735202 7.5 53.3125 C7.2215625 54.11300781 6.943125 54.91351562 6.65625 55.73828125 C5.86066893 58.08769422 5.86066893 58.08769422 6 61 C7.98 61 9.96 61 12 61 C11.87625 59.7625 11.7525 58.525 11.625 57.25 C11.52058594 56.20585938 11.52058594 56.20585938 11.4140625 55.140625 C10.96467035 52.8173524 10.14225762 51.0616357 9 49 Z " fill="#FAA21F" transform="translate(758,605)"/>
<path d="M0 0 C6.27 0 12.54 0 19 0 C24.22326184 20.52863374 29.27106717 41.09738475 34.17373657 61.70504761 C34.76602565 64.19242582 35.36024251 66.67934579 35.95639038 69.165802 C36.80085165 72.69123738 37.63779056 76.21837539 38.47265625 79.74609375 C38.7284848 80.80923798 38.98431335 81.8723822 39.24789429 82.96774292 C39.47941193 83.95348297 39.71092957 84.93922302 39.94946289 85.95483398 C40.15326065 86.81221664 40.35705841 87.6695993 40.56703186 88.55296326 C41 91 41 91 41 96 C34.4 96 27.8 96 21 96 C18 87 18 87 18 85 C12.06 85.33 6.12 85.66 0 86 C-0.99 89.3 -1.98 92.6 -3 96 C-9.6 96 -16.2 96 -23 96 C-22.44606699 85.94119775 -19.8096302 76.44236231 -17.34375 66.71875 C-16.87619927 64.85467085 -16.40920795 62.99045129 -15.94274902 61.12609863 C-14.96857561 57.23856806 -13.98981667 53.35223318 -13.00732422 49.46679688 C-11.74652121 44.48044318 -10.49402349 39.49205165 -9.24449921 34.50286102 C-8.28235898 30.66259623 -7.31755617 26.82300489 -6.35176086 22.98365784 C-5.88882139 21.14330559 -5.42632605 19.30284156 -4.96427917 17.46226501 C-4.32044965 14.90064542 -3.67344 12.3398517 -3.02539062 9.77929688 C-2.83419144 9.01673584 -2.64299225 8.2541748 -2.44599915 7.46850586 C-1.11470615 2.22941231 -1.11470615 2.22941231 0 0 Z M9 49 C8.49440092 50.43554025 7.9957251 51.8735202 7.5 53.3125 C7.2215625 54.11300781 6.943125 54.91351562 6.65625 55.73828125 C5.86066893 58.08769422 5.86066893 58.08769422 6 61 C7.98 61 9.96 61 12 61 C11.87625 59.7625 11.7525 58.525 11.625 57.25 C11.52058594 56.20585938 11.52058594 56.20585938 11.4140625 55.140625 C10.96467035 52.8173524 10.14225762 51.0616357 9 49 Z " fill="#FAA21F" transform="translate(576,605)"/>
<path d="M0 0 C7.66201081 4.70288939 14.18470499 11.07454783 16.375 20 C17.58478732 30.03115318 15.93491617 38.62227071 9.8125 46.75 C3.47503165 53.30546481 -3.00947567 56.26357349 -12.08496094 56.66162109 C-20.304179 56.74143395 -27.08589916 56.47211469 -33.625 51 C-35.2028125 49.948125 -35.2028125 49.948125 -36.8125 48.875 C-42.67389703 43.5389943 -45.85641044 36.87543518 -46.28930664 28.96972656 C-46.37067302 21.62105816 -45.36108976 15.80591714 -40.625 10 C-40.11710937 9.36707031 -39.60921875 8.73414063 -39.0859375 8.08203125 C-29.39349146 -2.68990523 -13.3732155 -6.08626216 0 0 Z " fill="#FBAA1E" transform="translate(314.625,534)"/>
<path d="M0 0 C14.85 0 29.7 0 45 0 C45 8.25 45 16.5 45 25 C40.71 25 36.42 25 32 25 C32 48.76 32 72.52 32 97 C25.73 97 19.46 97 13 97 C13 73.24 13 49.48 13 25 C8.71 25 4.42 25 0 25 C0 16.75 0 8.5 0 0 Z " fill="#FAA21F" transform="translate(867,604)"/>
<path d="M0 0 C1.18990599 0.63895379 2.38067476 1.27630326 3.57226562 1.91210938 C7.16465205 3.83589506 10.73833857 5.79256672 14.3125 7.75 C16.40177676 8.88125611 18.4915886 10.01152479 20.58203125 11.140625 C24.18609128 13.09271198 27.78437948 15.05455424 31.375 17.03125 C32.17333252 17.46888672 32.97166504 17.90652344 33.79418945 18.35742188 C35.61180976 19.36253154 37.42197193 20.38116956 39.22729492 21.40820312 C40.19771729 21.95412109 41.16813965 22.50003906 42.16796875 23.0625 C43.04864014 23.56394531 43.92931152 24.06539062 44.83666992 24.58203125 C49.74329793 26.89672491 53.64494763 26.22644354 58.8125 24.75 C59.6375 24.42 60.4625 24.09 61.3125 23.75 C59.35190255 27.27907541 57.51911678 30.25596472 54.3125 32.75 C47.71334262 34.61259742 43.79376916 32.6557165 38 29.6875 C37.15767822 29.27282471 36.31535645 28.85814941 35.44750977 28.4309082 C30.3027975 25.86626044 25.35519565 23.08550072 20.49609375 20.01171875 C17.39991219 18.22269076 14.13509368 17.06038861 10.796875 15.80078125 C8.2143737 14.7084969 5.94518514 13.41305175 3.5625 11.9375 C-0.52429966 9.40911604 -4.67004584 7.08007604 -8.9375 4.875 C-10.07703125 4.27945313 -11.2165625 3.68390625 -12.390625 3.0703125 C-15.92141434 1.65632341 -17.94141471 1.09190394 -21.6875 1.75 C-27.18241338 5.64745759 -29.11973765 11.55955064 -31.625 17.625 C-32.06465088 18.66293701 -32.50430176 19.70087402 -32.95727539 20.77026367 C-35.7170308 27.31520453 -38.37492787 33.89780591 -40.984375 40.50390625 C-43.38505606 46.52851616 -45.87692294 52.51526941 -48.375 58.5 C-48.85122803 59.65669189 -49.32745605 60.81338379 -49.81811523 62.00512695 C-50.27387939 63.09140381 -50.72964355 64.17768066 -51.19921875 65.296875 C-51.60615967 66.27495117 -52.01310059 67.25302734 -52.43237305 68.26074219 C-53.63717557 70.65019299 -54.58887417 72.11277656 -56.6875 73.75 C-59.60546875 74.26171875 -59.60546875 74.26171875 -62.875 74.4375 C-63.96167969 74.50324219 -65.04835938 74.56898438 -66.16796875 74.63671875 C-67.41513672 74.69279297 -67.41513672 74.69279297 -68.6875 74.75 C-67.924375 74.1725 -67.16125 73.595 -66.375 73 C-62.58847541 69.82988639 -60.53331289 66.81431428 -58.80859375 62.2109375 C-53.07250253 47.35085074 -46.26867661 32.87747502 -39.60275269 18.41400146 C-38.7668609 16.59910849 -37.93526528 14.78223879 -37.10375977 12.96533203 C-30.38143193 -1.53397055 -30.38143193 -1.53397055 -25.6875 -5.25 C-15.48051221 -8.26769466 -8.90781212 -4.91025934 0 0 Z " fill="#EF7E0A" transform="translate(373.6875,667.25)"/>
<path d="M0 0 C9.43311851 -1.06063396 9.43311851 -1.06063396 12.93896484 1.3125 C14.53814785 3.12798049 15.87256978 4.96979477 17.1875 7 C17.66251953 7.66773438 18.13753906 8.33546875 18.62695312 9.0234375 C19.78399402 10.65965695 20.89677433 12.32702336 22 14 C22.33 9.38 22.66 4.76 23 0 C32.27734375 -0.09765625 32.27734375 -0.09765625 35 0 C36.81565436 1.81565436 36.12861899 4.31269962 36.13894653 6.72888184 C36.1369223 7.52991333 36.13489807 8.33094482 36.1328125 9.15625 C36.13376923 9.97371704 36.13472595 10.79118408 36.13571167 11.63342285 C36.13639345 13.36515378 36.13453929 15.09688724 36.13037109 16.82861328 C36.12502279 19.48866482 36.13031612 22.1485475 36.13671875 24.80859375 C36.13605797 26.48697954 36.1347768 28.16536523 36.1328125 29.84375 C36.13483673 30.64478149 36.13686096 31.44581299 36.13894653 32.27111816 C36.11495079 37.88504921 36.11495079 37.88504921 35 39 C31.37223907 40.12714383 28.6163127 40.19415673 25 39 C20.56224573 35.05051062 17.2889127 29.90210563 14 25 C13.93941406 25.92683594 13.87882813 26.85367188 13.81640625 27.80859375 C13.73261719 29.00613281 13.64882813 30.20367188 13.5625 31.4375 C13.48128906 32.63246094 13.40007813 33.82742188 13.31640625 35.05859375 C13 38 13 38 12 39 C10.16884117 39.09851171 8.33380067 39.12972629 6.5 39.125 C5.4996875 39.12757813 4.499375 39.13015625 3.46875 39.1328125 C1 39 1 39 0 38 C-0.08861992 35.1883662 -0.11522355 32.40141745 -0.09765625 29.58984375 C-0.0962413 28.74780899 -0.09482635 27.90577423 -0.09336853 27.03822327 C-0.08775263 24.33794665 -0.07519748 21.63775172 -0.0625 18.9375 C-0.05748705 17.11132932 -0.05292379 15.28515734 -0.04882812 13.45898438 C-0.03777804 8.97262458 -0.02050279 4.48632616 0 0 Z " fill="#FAA21F" transform="translate(732,554)"/>
<path d="M0 0 C3.85402129 -0.08770383 7.70778291 -0.14062735 11.5625 -0.1875 C12.64853516 -0.21263672 13.73457031 -0.23777344 14.85351562 -0.26367188 C21.87438607 -0.32769197 27.49880179 -0.16237257 32.9375 4.75 C34.47226793 8.0000968 34.38000524 10.45328447 34 14 C32.5 16.4375 32.5 16.4375 31 18 C31.639375 18.70125 32.27875 19.4025 32.9375 20.125 C35.24485951 23.34131931 35.91960364 25.06057842 36 29 C34.73153322 32.5939892 33.66203718 34.4947611 30.625 36.8125 C26.3692826 38.73770549 22.37115728 39.12693039 17.734375 39.1328125 C16.76242187 39.13410156 15.79046875 39.13539063 14.7890625 39.13671875 C13.78617188 39.13285156 12.78328125 39.12898437 11.75 39.125 C10.73164062 39.12886719 9.71328125 39.13273438 8.6640625 39.13671875 C7.69726562 39.13542969 6.73046875 39.13414062 5.734375 39.1328125 C4.84975586 39.13168457 3.96513672 39.13055664 3.05371094 39.12939453 C1 39 1 39 0 38 C-0.08861992 35.1883662 -0.11522355 32.40141745 -0.09765625 29.58984375 C-0.0962413 28.74780899 -0.09482635 27.90577423 -0.09336853 27.03822327 C-0.08775263 24.33794665 -0.07519748 21.63775172 -0.0625 18.9375 C-0.05748705 17.11132932 -0.05292379 15.28515734 -0.04882812 13.45898438 C-0.03777804 8.97262458 -0.02050279 4.48632616 0 0 Z M13 10 C13 11.32 13 12.64 13 14 C15.64 14 18.28 14 21 14 C20.67 12.68 20.34 11.36 20 10 C17.69 10 15.38 10 13 10 Z M13 24 C13 25.65 13 27.3 13 29 C17.79308342 29.46522293 17.79308342 29.46522293 21.9375 27.5 C22.288125 27.005 22.63875 26.51 23 26 C22.67 25.34 22.34 24.68 22 24 C19.03 24 16.06 24 13 24 Z " fill="#FAA21F" transform="translate(657,554)"/>
<path d="M0 0 C3 0 3 0 4.5625 1.4375 C5.036875 1.953125 5.51125 2.46875 6 3 C6.99 3.495 6.99 3.495 8 4 C8 4.66 8 5.32 8 6 C3.02450886 8.29486412 -1.95193788 10.58763983 -6.92919922 12.87866211 C-8.61467091 13.65481142 -10.29990103 14.43148559 -11.98486328 15.20874023 C-21.22727683 19.47171393 -30.47671276 23.7048661 -39.83068848 27.71864319 C-48.54099705 31.3744752 -48.54099705 31.3744752 -56 37 C-56.24902408 44.28098971 -54.59937378 51.35148455 -52.62109375 58.30859375 C-52.00622871 60.97300893 -51.88633349 63.27694586 -52 66 C-56.12649332 62.09267941 -59.50745035 57.88232159 -62.875 53.3125 C-63.39731201 52.60569092 -63.91962402 51.89888184 -64.45776367 51.1706543 C-65.49610954 49.76235452 -66.53253949 48.35263978 -67.56689453 46.94140625 C-68.81619107 45.24900317 -70.09148627 43.57585316 -71.37109375 41.90625 C-72.01175781 41.0503125 -72.65242188 40.194375 -73.3125 39.3125 C-73.86550781 38.58675781 -74.41851562 37.86101563 -74.98828125 37.11328125 C-76 35 -76 35 -75.98046875 32.41796875 C-74.60258487 29.01992044 -73.34499618 28.5551298 -70 27 C-66.40526889 25.51868848 -62.77342194 24.15544892 -59.125 22.8125 C-58.07014404 22.42030273 -57.01528809 22.02810547 -55.9284668 21.62402344 C-47.62546706 18.55491968 -39.2748389 15.63272652 -30.90625 12.74829102 C-14.33773876 8.23621174 -14.33773876 8.23621174 0 0 Z " fill="#B41919" transform="translate(488,577)"/>
<path d="M0 0 C0 1.65052714 -0.02118487 3.30319425 -0.13623047 4.94970703 C-0.43868672 11.18142093 1.04509521 15.38859288 3.875 20.875 C4.27775146 21.6894458 4.68050293 22.5038916 5.09545898 23.34301758 C6.3738365 25.90789632 7.6808998 28.45584702 9 31 C9.42200684 31.8142041 9.84401367 32.6284082 10.27880859 33.46728516 C12.35848421 37.46035873 14.46183577 41.44029296 16.578125 45.4140625 C19.56955879 51.04737462 22.41874042 56.74792136 25.23828125 62.46875 C26.32760624 64.65223069 27.44473361 66.82237846 28.60546875 68.96875 C31.18849103 73.77302673 33.00914652 77.39363044 32 83 C29.00782979 86.64579963 25.35217527 88.68964783 21.1875 90.75 C20.49881836 91.09289062 19.81013672 91.43578125 19.10058594 91.7890625 C12.19500658 95.10422456 5.03874398 97.56123658 -2.21484375 99.99462891 C-9.51470806 102.44752739 -16.63874953 105.19391826 -23.75463867 108.1340332 C-27.8439176 109.80385996 -31.92480305 111.33771779 -36.140625 112.66015625 C-36.96780029 112.91974121 -37.79497559 113.17932617 -38.6472168 113.44677734 C-40.21124922 113.92643714 -41.78031465 114.39009972 -43.35473633 114.83447266 C-46.90672956 115.91788177 -48.70635167 116.5800645 -50.87109375 119.67578125 C-51.24363281 120.44277344 -51.61617188 121.20976563 -52 122 C-52.66 122 -53.32 122 -54 122 C-54.40394519 117.87975908 -54.52608872 115.72973597 -52.0625 112.3125 C-46.07238131 107.78934915 -38.7703275 105.45612322 -31.75 102.9375 C-23.18108972 99.82137303 -14.64849123 96.61289089 -6.125 93.375 C-4.92584961 92.91988037 -3.72669922 92.46476074 -2.49121094 91.99584961 C-0.1524925 91.10715593 2.18541826 90.21633341 4.52246094 89.32324219 C6.91286628 88.41366644 9.30698212 87.51380127 11.70410156 86.62207031 C13.46318848 85.96223145 13.46318848 85.96223145 15.2578125 85.2890625 C16.31371582 84.8967041 17.36961914 84.5043457 18.45751953 84.10009766 C21.10616186 83.13928159 21.10616186 83.13928159 23 81 C23.57350994 74.89342257 22.48452425 70.92806014 19.5 65.5625 C18.75834151 64.15864643 18.01882539 62.75365934 17.28125 61.34765625 C16.90097656 60.63109863 16.52070313 59.91454102 16.12890625 59.17626953 C14.30935474 55.66859606 12.65801269 52.08610702 11 48.5 C8.35894407 42.82833076 5.62905288 37.21150716 2.8125 31.625 C2.15324549 30.30488735 1.49437911 28.98458079 0.8359375 27.6640625 C-0.30521055 25.3758291 -1.46678361 23.10404094 -2.6484375 20.8359375 C-5.54782592 15.02114194 -6.96683648 11.3375842 -5 5 C-2.4375 2 -2.4375 2 0 0 Z " fill="#FEC84D" transform="translate(163,435)"/>
<path d="M0 0 C4.29 0 8.58 0 13 0 C13.33 3.63 13.66 7.26 14 11 C14.48726562 10.2059375 14.97453125 9.411875 15.4765625 8.59375 C21.19843713 0.35425053 21.19843713 0.35425053 26.71484375 -0.73046875 C30.20135889 -0.69153305 33.54876334 -0.48602053 37 0 C34.19258832 5.02235012 30.55781757 9.07989549 26.765625 13.37890625 C24.75597687 15.74543933 24.75597687 15.74543933 25.2331543 17.92724609 C26.06719147 20.18161591 27.09675278 21.83853174 28.50390625 23.78515625 C28.99697266 24.48060547 29.49003906 25.17605469 29.99804688 25.89257812 C31.04420483 27.34361619 32.09108445 28.79413423 33.13867188 30.24414062 C33.63044922 30.93830078 34.12222656 31.63246094 34.62890625 32.34765625 C35.3106189 33.29137085 35.3106189 33.29137085 36.00610352 34.25415039 C37 36 37 36 37 39 C32.17156484 39.67136949 27.79991625 39.96204109 23 39 C19.47301631 35.77165142 17.33061783 32.13735039 15 28 C14.67 28 14.34 28 14 28 C13.93941406 28.71027344 13.87882813 29.42054688 13.81640625 30.15234375 C13.73261719 31.07144531 13.64882813 31.99054687 13.5625 32.9375 C13.44068359 34.31228516 13.44068359 34.31228516 13.31640625 35.71484375 C13 38 13 38 12 39 C10.16884117 39.09851171 8.33380067 39.12972629 6.5 39.125 C5.4996875 39.12757813 4.499375 39.13015625 3.46875 39.1328125 C1 39 1 39 0 38 C-0.08861992 35.1883662 -0.11522355 32.40141745 -0.09765625 29.58984375 C-0.0962413 28.74780899 -0.09482635 27.90577423 -0.09336853 27.03822327 C-0.08775263 24.33794665 -0.07519748 21.63775172 -0.0625 18.9375 C-0.05748705 17.11132932 -0.05292379 15.28515734 -0.04882812 13.45898438 C-0.03777804 8.97262458 -0.02050279 4.48632616 0 0 Z " fill="#FAA21F" transform="translate(561,554)"/>
<path d="M0 0 C4.1117256 -0.02465746 8.22342278 -0.04283959 12.33520508 -0.05493164 C13.73495228 -0.0599708 15.1346942 -0.06680216 16.53442383 -0.07543945 C18.54245777 -0.0875232 20.55052957 -0.09269807 22.55859375 -0.09765625 C24.37315063 -0.10551147 24.37315063 -0.10551147 26.22436523 -0.11352539 C29 0 29 0 30 1 C30.0979057 2.49738124 30.12974864 3.99942892 30.125 5.5 C30.12886719 6.72203125 30.12886719 6.72203125 30.1328125 7.96875 C30 10 30 10 29 11 C26.30345146 11.07319621 23.63308542 11.09242537 20.9375 11.0625 C19.79958008 11.05573242 19.79958008 11.05573242 18.63867188 11.04882812 C16.75908129 11.0370068 14.87953101 11.01907078 13 11 C13 11.99 13 12.98 13 14 C17.95 14 22.9 14 28 14 C28 17.3 28 20.6 28 24 C23.05 24 18.1 24 13 24 C13 25.32 13 26.64 13 28 C18.61 28 24.22 28 30 28 C30 31.63 30 35.26 30 39 C25.8882744 39.02465746 21.77657722 39.04283959 17.66479492 39.05493164 C16.26504772 39.0599708 14.8653058 39.06680216 13.46557617 39.07543945 C11.45754223 39.0875232 9.44947043 39.09269807 7.44140625 39.09765625 C6.23170166 39.10289307 5.02199707 39.10812988 3.77563477 39.11352539 C1 39 1 39 0 38 C-0.08861992 35.1883662 -0.11522355 32.40141745 -0.09765625 29.58984375 C-0.0962413 28.74780899 -0.09482635 27.90577423 -0.09336853 27.03822327 C-0.08775263 24.33794665 -0.07519748 21.63775172 -0.0625 18.9375 C-0.05748705 17.11132932 -0.05292379 15.28515734 -0.04882812 13.45898438 C-0.03777804 8.97262458 -0.02050279 4.48632616 0 0 Z " fill="#FAA21F" transform="translate(782,554)"/>
<path d="M0 0 C1.65322266 0.01740234 1.65322266 0.01740234 3.33984375 0.03515625 C4.44457031 0.04417969 5.54929687 0.05320312 6.6875 0.0625 C7.54214844 0.07410156 8.39679687 0.08570313 9.27734375 0.09765625 C13.3016675 8.31990203 16.7968883 16.70955712 20.15234375 25.22265625 C20.55767334 26.24238525 20.96300293 27.26211426 21.38061523 28.31274414 C21.75645752 29.27559326 22.1322998 30.23844238 22.51953125 31.23046875 C22.85839355 32.09559082 23.19725586 32.96071289 23.54638672 33.85205078 C24.27734375 36.09765625 24.27734375 36.09765625 24.27734375 39.09765625 C22.34175062 39.23269763 20.40347175 39.32966754 18.46484375 39.41015625 C17.38589844 39.46816406 16.30695312 39.52617188 15.1953125 39.5859375 C12.27734375 39.09765625 12.27734375 39.09765625 10.390625 36.703125 C9.27734375 34.09765625 9.27734375 34.09765625 9.27734375 32.09765625 C5.20078893 32.11029673 1.26993449 32.23395295 -2.72265625 33.09765625 C-5.1151422 35.9536816 -5.1151422 35.9536816 -5.72265625 39.09765625 C-9.68265625 39.09765625 -13.64265625 39.09765625 -17.72265625 39.09765625 C-17.11315914 34.25766959 -15.67295498 30.02485401 -13.81640625 25.546875 C-13.53164429 24.84746292 -13.24688232 24.14805084 -12.95349121 23.42744446 C-12.3545545 21.95979719 -11.7526572 20.49335497 -11.14794922 19.02807617 C-10.21941779 16.77730618 -9.30039454 14.52283115 -8.3828125 12.26757812 C-7.79872531 10.83961938 -7.21410872 9.41187704 -6.62890625 7.984375 C-6.35284546 7.30839767 -6.07678467 6.63242035 -5.7923584 5.93595886 C-3.3872241 0.12149297 -3.3872241 0.12149297 0 0 Z M2.27734375 16.09765625 C1.94734375 18.07765625 1.61734375 20.05765625 1.27734375 22.09765625 C2.59734375 22.09765625 3.91734375 22.09765625 5.27734375 22.09765625 C4.61734375 20.11765625 3.95734375 18.13765625 3.27734375 16.09765625 C2.94734375 16.09765625 2.61734375 16.09765625 2.27734375 16.09765625 Z " fill="#FAA21F" transform="translate(621.72265625,553.90234375)"/>
<path d="M0 0 C-0.38671875 0.40089844 -0.7734375 0.80179687 -1.171875 1.21484375 C-7.17371054 7.76635235 -9.71914878 14.78233739 -12.12207031 23.21484375 C-13.01883923 26.05976584 -14.0870399 28.75359585 -15.25 31.5 C-15.69335693 32.55098877 -16.13671387 33.60197754 -16.59350586 34.68481445 C-17.28972046 36.3258313 -17.28972046 36.3258313 -18 38 C-18.91804821 40.18095614 -19.83601653 42.36194591 -20.75390625 44.54296875 C-21.68976172 46.75795722 -22.62596131 48.97280032 -23.5625 51.1875 C-24.03107422 52.29802734 -24.49964844 53.40855469 -24.98242188 54.55273438 C-26.31512691 57.70462839 -27.65647052 60.85270798 -29 64 C-29.37616455 64.89533447 -29.7523291 65.79066895 -30.13989258 66.71313477 C-30.4830249 67.51420654 -30.82615723 68.31527832 -31.1796875 69.140625 C-31.47214355 69.8305957 -31.76459961 70.52056641 -32.06591797 71.23144531 C-33.79455993 74.50438895 -35.62883619 75.59024059 -39 77 C-47.64013546 78.14360077 -54.18005144 75.81911236 -61.9375 72.25 C-64.22124025 71.24062763 -66.50509872 70.23152271 -68.7890625 69.22265625 C-69.96629883 68.69430176 -71.14353516 68.16594727 -72.35644531 67.62158203 C-76.0433218 65.98071942 -79.74616535 64.38487004 -83.4609375 62.80859375 C-84.0774971 62.54670258 -84.6940567 62.2848114 -85.32929993 62.01498413 C-87.15694851 61.23895641 -88.98472332 60.46322598 -90.8125 59.6875 C-93.04928654 58.73567594 -95.28500226 57.7813307 -97.51953125 56.82421875 C-98.58381348 56.36837402 -99.6480957 55.9125293 -100.74462891 55.44287109 C-105.23281169 53.45358354 -109.63728329 51.29608606 -114.03393555 49.11254883 C-118.50899121 47.43398856 -122.46731818 47.60532867 -127 49 C-124.37199497 45.89417588 -122.74675651 44.18796446 -118.74780273 43.18139648 C-114.42133885 42.97199236 -112.04415738 43.79470568 -108.09765625 45.53515625 C-107.46264191 45.80894104 -106.82762756 46.08272583 -106.17337036 46.36480713 C-104.1295776 47.24920144 -102.09647083 48.15577786 -100.0625 49.0625 C-97.95277088 49.98090721 -95.8404906 50.89324934 -93.72792053 51.80509949 C-92.34864556 52.40073989 -90.97016589 52.99822553 -89.59251404 53.59761047 C-84.84155711 55.66016686 -80.06491976 57.57329518 -75.1875 59.3125 C-68.71470743 61.64811712 -62.48770256 64.40021436 -56.28588867 67.37426758 C-50.80204662 69.92098822 -45.15987297 72.12351039 -39.1875 70 C-36.36987693 67.42388748 -35.37711685 64.47177574 -34 61 C-33.52522217 59.81140381 -33.05044434 58.62280762 -32.5612793 57.39819336 C-32.06461132 56.12912703 -31.56896464 54.85966064 -31.07421875 53.58984375 C-30.51894149 52.17250203 -29.96360085 50.75518514 -29.40820312 49.33789062 C-28.55194297 47.14918359 -27.69636372 44.960216 -26.84204102 42.77075195 C-23.45019612 34.08364674 -19.96785416 25.45720821 -16.22998047 16.91259766 C-15.18594376 14.44031542 -14.28676883 11.98059159 -13.4375 9.4375 C-10.67665735 2.83548497 -7.01034427 -0.18448274 0 0 Z " fill="#FEC43A" transform="translate(294,382)"/>
<path d="M0 0 C10.89 0 21.78 0 33 0 C33 3.63 33 7.26 33 11 C29.7 11 26.4 11 23 11 C23.00785522 12.21901001 23.00785522 12.21901001 23.01586914 13.46264648 C23.03656994 17.12092322 23.04963803 20.77918767 23.0625 24.4375 C23.07087891 25.71689453 23.07925781 26.99628906 23.08789062 28.31445312 C23.09272461 30.13686523 23.09272461 30.13686523 23.09765625 31.99609375 C23.10551147 33.68496704 23.10551147 33.68496704 23.11352539 35.40795898 C23 38 23 38 22 39 C18.04 39 14.08 39 10 39 C10 29.76 10 20.52 10 11 C6.7 11 3.4 11 0 11 C0 7.37 0 3.74 0 0 Z " fill="#FAA21F" transform="translate(823,554)"/>
<path d="M0 0 C0.33 0 0.66 0 1 0 C0.37146448 7.77867645 -0.82331695 15.39297092 -2.25 23.0625 C-2.44207031 24.18205078 -2.63414062 25.30160156 -2.83203125 26.45507812 C-4.61815417 36.03161767 -7.61791499 43.43814666 -15 50 C-15.6290625 50.6084375 -16.258125 51.216875 -16.90625 51.84375 C-22.34058358 56.98031188 -28.1352663 61.43237523 -34.1875 65.8125 C-34.94764404 66.36357422 -35.70778809 66.91464844 -36.4909668 67.48242188 C-49.37106945 76.68229461 -49.37106945 76.68229461 -55 76 C-51.47574142 72.42410393 -47.84615983 68.99590499 -44.125 65.625 C-42.08054717 63.75301201 -40.04034948 61.87646598 -38 60 C-37.03513672 59.12021484 -37.03513672 59.12021484 -36.05078125 58.22265625 C-19.69305089 42.6570678 -6.48115616 21.50218866 0 0 Z " fill="#B72521" transform="translate(376,793)"/>
<path d="M0 0 C0.91136719 0.74121094 1.82273437 1.48242188 2.76171875 2.24609375 C7.66943456 5.74772863 13.10192837 7.29805713 18.8125 9.0625 C25.53987239 11.18981563 32.14996119 13.3942058 38.67895508 16.07348633 C42.21328738 17.48431951 45.8167277 18.64628371 49.4375 19.8125 C52.62764733 20.86711111 55.81428448 21.93208248 59 23 C60.31532715 23.44013428 60.31532715 23.44013428 61.65722656 23.88916016 C64.29898205 24.7829908 66.93129069 25.70064256 69.5625 26.625 C70.38999756 26.90190674 71.21749512 27.17881348 72.07006836 27.46411133 C72.83198486 27.73634521 73.59390137 28.0085791 74.37890625 28.2890625 C75.0551001 28.52318848 75.73129395 28.75731445 76.42797852 28.99853516 C78 30 78 30 78.76123047 31.97314453 C79.05690519 34.48305408 78.52942808 35.92937261 77.5625 38.25 C77.13130859 39.30960938 77.13130859 39.30960938 76.69140625 40.390625 C76.46324219 40.92171875 76.23507813 41.4528125 76 42 C75.773125 41.401875 75.54625 40.80375 75.3125 40.1875 C71.68122465 34.13537442 62.60331095 32.14649758 56.1875 30.25 C49.96659542 28.38301604 43.98058616 26.10488232 37.94946289 23.71240234 C32.71347272 21.64316816 27.44507333 19.7164022 22.125 17.875 C2.74215348 11.11323021 2.74215348 11.11323021 0 7 C-0.07905064 4.66800612 -0.08798769 2.33167378 0 0 Z " fill="#F47D04" transform="translate(111,570)"/>
<path d="M0 0 C4.89496223 0.52446024 8.37202415 2.80648169 12.5 5.375 C12.5 5.705 12.5 6.035 12.5 6.375 C11.365625 6.375 10.23125 6.375 9.0625 6.375 C3.07350684 7.14900682 -0.56009112 11.05149753 -4.5 15.375 C-6.65931956 18.68229088 -8.24478244 22.13069369 -9.8125 25.75 C-10.26270508 26.74241699 -10.71291016 27.73483398 -11.17675781 28.75732422 C-12.13502615 30.87045409 -13.08521738 32.987263 -14.02783203 35.10742188 C-15.51254333 38.40284079 -17.05652351 41.6636878 -18.62109375 44.921875 C-23.93248329 56.04641368 -28.78242985 67.06553512 -32.35839844 78.87939453 C-34.59635407 86.22148543 -34.59635407 86.22148543 -37.5 89.375 C-38.34608629 79.03394531 -37.63391343 72.10684807 -32.421875 62.83984375 C-30.52074174 59.41239416 -29.04790295 56.02418649 -27.625 52.375 C-27.13687802 51.12363578 -26.6485897 49.87233643 -26.16015625 48.62109375 C-25.89992676 47.95190918 -25.63969727 47.28272461 -25.37158203 46.59326172 C-22.53357983 39.37026787 -19.56272959 32.199251 -16.59619141 25.02832031 C-15.89181852 23.32339279 -15.19069395 21.61711763 -14.49365234 19.90917969 C-13.59161638 17.70482062 -12.6735767 15.50790423 -11.75 13.3125 C-11.4929126 12.67642822 -11.2358252 12.04035645 -10.97094727 11.38500977 C-9.16816798 7.17011754 -6.8880972 4.43214069 -3.5 1.375 C-2.5 0.375 -2.5 0.375 0 0 Z " fill="#AF1810" transform="translate(354.5,667.625)"/>
<path d="M0 0 C4.29 0 8.58 0 13 0 C13 12.87 13 25.74 13 39 C9.04 39 5.08 39 1 39 C0 38 0 38 -0.11352539 34.39819336 C-0.11336625 32.79540144 -0.10767063 31.1926044 -0.09765625 29.58984375 C-0.0962413 28.74780899 -0.09482635 27.90577423 -0.09336853 27.03822327 C-0.08775263 24.33794665 -0.07519748 21.63775172 -0.0625 18.9375 C-0.05748705 17.11132932 -0.05292379 15.28515734 -0.04882812 13.45898438 C-0.03777804 8.97262458 -0.02050279 4.48632616 0 0 Z " fill="#FAA21F" transform="translate(705,554)"/>
<path d="M0 0 C4.29486359 0.58261799 7.9355414 1.62223801 11.9296875 3.29296875 C13.04617676 3.75517822 14.16266602 4.2173877 15.31298828 4.69360352 C17.07618408 5.43308228 17.07618408 5.43308228 18.875 6.1875 C21.32743744 7.20218423 23.78055898 8.21521666 26.234375 9.2265625 C27.41064453 9.71157227 28.58691406 10.19658203 29.79882812 10.69628906 C33.5513704 12.2245514 37.3226813 13.66292312 41.125 15.0625 C48.14970761 17.66648644 55.14662784 20.33658899 62.125 23.0625 C63.20539551 23.47443604 64.28579102 23.88637207 65.39892578 24.31079102 C78.17024397 29.34048795 78.17024397 29.34048795 81 35 C81.039992 36.99960012 81.04346799 39.00047242 81 41 C80.319375 39.88625 80.319375 39.88625 79.625 38.75 C75.92161059 34.87025871 71.98594765 33.79372507 67 32 C65.68050708 31.48501805 64.36292158 30.96513268 63.046875 30.44140625 C55.86962479 27.58993696 48.6753491 24.85802784 41.36376953 22.36865234 C31.8993168 19.14620997 22.94590411 15.46951749 14 11 C12.50651503 10.26040735 11.01302525 9.52082441 9.51953125 8.78125 C5.67184843 6.86950035 1.83374224 4.93954108 -2 3 C-1.34 2.01 -0.68 1.02 0 0 Z " fill="#FDBA2E" transform="translate(410,517)"/>
<path d="M0 0 C3.0625 2.5 3.0625 2.5 5 5 C3.27523437 4.92265625 3.27523437 4.92265625 1.515625 4.84375 C-3.11432171 4.85187984 -6.9196789 5.95199083 -11.25 7.5 C-12.01940918 7.76554687 -12.78881836 8.03109375 -13.58154297 8.3046875 C-21.19949461 10.97840609 -28.67729323 14.00107846 -36.15234375 17.046875 C-40.63355087 18.86750457 -45.14953577 20.57678414 -49.6875 22.25 C-53.78338678 23.76298984 -57.83744874 25.31305084 -61.8125 27.125 C-76.2387127 33.6898922 -76.2387127 33.6898922 -84 33 C-83.8125 31.1875 -83.8125 31.1875 -83 29 C-79.42233286 26.53257344 -75.73073186 25.03917276 -71.65234375 23.58203125 C-69.79935669 22.91337036 -69.79935669 22.91337036 -67.90893555 22.23120117 C-67.26064789 21.99968353 -66.61236023 21.76816589 -65.94442749 21.52963257 C-62.54711595 20.31567603 -59.15606543 19.08455822 -55.765625 17.8515625 C-55.09351486 17.60728012 -54.42140472 17.36299774 -53.72892761 17.11131287 C-48.1683433 15.08107173 -42.66792678 12.92368665 -37.1875 10.6875 C-29.60538025 7.59480357 -21.95347516 4.79274976 -14.2109375 2.12890625 C-9.10813983 0.33485695 -5.51582122 -0.89394344 0 0 Z " fill="#FDBA2E" transform="translate(428,427)"/>
<path d="M0 0 C4.21816306 0.21481386 7.71494872 0.84554337 10.921875 3.7265625 C12.62583487 5.84558951 14.23175181 8.00653257 15.77929688 10.2421875 C17.74141808 13.06764203 19.77057164 15.8444644 21.78759766 18.63085938 C22.93122766 20.21309284 24.07152034 21.79774374 25.20849609 23.38476562 C28.16724219 27.50923524 31.17092692 31.5603615 34.375 35.5 C46.37226791 50.29917761 46.37226791 50.29917761 46 57 C44.71217983 60.87053644 43.48754262 64.14649194 39.85546875 66.23046875 C39.24316406 66.48441406 38.63085938 66.73835937 38 67 C38.495 65.515 38.495 65.515 39 64 C39.83168066 58.00438538 39.06339148 54.06227729 35.49609375 49.18139648 C34.98175781 48.52341064 34.46742188 47.8654248 33.9375 47.1875 C33.40382813 46.46957275 32.87015625 45.75164551 32.3203125 45.01196289 C31.1681669 43.46765738 30.00619094 41.93064642 28.83544922 40.40039062 C26.96460765 37.95371408 25.12205049 35.48786854 23.28515625 33.015625 C18.35664036 26.39520199 13.38140206 19.81075807 8.37890625 13.24609375 C7.81816406 12.50689697 7.25742187 11.7677002 6.6796875 11.00610352 C5.62531074 9.61666288 4.56690082 8.23027081 3.50390625 6.84741211 C0 2.22481079 0 2.22481079 0 0 Z " fill="#FDBB30" transform="translate(407,615)"/>
<path d="M0 0 C0.33 0 0.66 0 1 0 C1.3125 3.25 1.3125 3.25 1 7 C-2.6339616 10.6547271 -6.69327759 12.2004793 -11.5 13.75 C-13.02694055 14.26426583 -14.55294285 14.78132365 -16.078125 15.30078125 C-17.28178711 15.70997803 -17.28178711 15.70997803 -18.50976562 16.12744141 C-22.7953657 17.62908206 -27.01783567 19.29253514 -31.25 20.9375 C-38.47955772 23.73446766 -45.75451015 26.28782097 -53.125 28.6875 C-65.57384463 31.69493773 -65.57384463 31.69493773 -75.09375 38.86328125 C-75.80990738 40.98514556 -75.80990738 40.98514556 -76 44 C-77.98 43.67 -79.96 43.34 -82 43 C-82.5859375 37.23828125 -82.5859375 37.23828125 -82 35 C-77.65335314 30.78213029 -73.77581904 28.86803694 -68.0234375 27.16796875 C-67.26436096 26.93029282 -66.50528442 26.69261688 -65.72320557 26.44773865 C-64.10919336 25.94313596 -62.49332788 25.44442828 -60.87579346 24.95123291 C-56.67265962 23.66761165 -52.48483081 22.33607242 -48.296875 21.00390625 C-47.47913605 20.74450256 -46.66139709 20.48509888 -45.81887817 20.21783447 C-37.38388376 17.52140447 -29.20289641 14.32976448 -21.05957031 10.85839844 C-18.92669041 9.96944565 -16.778216 9.13828539 -14.6171875 8.3203125 C-13.92028809 8.05395996 -13.22338867 7.78760742 -12.50537109 7.51318359 C-10.66157157 6.81148925 -8.81527533 6.11636462 -6.96875 5.421875 C-3.95231997 3.97716378 -2.22559185 2.45654949 0 0 Z " fill="#F38709" transform="translate(488,570)"/>
<path d="M0 0 C4.8702219 3.78795037 6.52852713 8.5745137 8.625 14.1875 C8.93026611 14.98937744 9.23553223 15.79125488 9.55004883 16.61743164 C10.16653428 18.23750558 10.78058002 19.85851017 11.39208984 21.48046875 C12.55499302 24.55683412 13.74726205 27.62162391 14.9375 30.6875 C17.86645726 38.31820445 20.72798278 45.97378023 23.25 53.75 C19.94483322 50.99739981 18.33834332 47.32560865 16.4375 43.5625 C12.43917559 35.8209167 8.14719755 28.27147788 3.75 20.75 C3.12633545 19.68112549 2.5026709 18.61225098 1.86010742 17.51098633 C-0.59676028 12.87623519 -0.59676028 12.87623519 -3.75 8.75 C-7.90162431 8.15691081 -10.20889082 8.77401624 -13.5625 11.125 C-15.57328492 12.64307603 -16.61572959 13.48145917 -17.75 15.75 C-18.41 15.75 -19.07 15.75 -19.75 15.75 C-20.73248524 11.6972484 -20.83159574 7.91138263 -20.75 3.75 C-19.480447 3.10165346 -18.20930294 2.45642185 -16.9375 1.8125 C-16.22980469 1.45285156 -15.52210938 1.09320312 -14.79296875 0.72265625 C-9.80824086 -1.65056984 -5.12926943 -2.33148611 0 0 Z " fill="#B91C15" transform="translate(249.75,670.25)"/>
<path d="M0 0 C0.66 0 1.32 0 2 0 C2 15.84 2 31.68 2 48 C-2.90286079 47.01942784 -6.04065992 45.4069707 -10.125 42.75 C-11.05505859 42.17572266 -11.05505859 42.17572266 -12.00390625 41.58984375 C-15.75100059 39.1804218 -18.04857015 37.01681181 -20 33 C-18.80375 32.649375 -17.6075 32.29875 -16.375 31.9375 C-10.63238196 29.74597086 -7.66638201 26.11898475 -4.8125 20.77734375 C-1.85729206 14.09553169 -0.85931417 7.2137163 0 0 Z " fill="#B42724" transform="translate(290,829)"/>
<path d="M0 0 C0.33 0 0.66 0 1 0 C1.75277748 6.81226349 1.75277748 6.81226349 -0.17041016 9.84667969 C-1.80729814 11.62987313 -3.51066329 13.25889992 -5.3125 14.875 C-6.20485352 15.72578125 -6.20485352 15.72578125 -7.11523438 16.59375 C-11.51019963 20.7382759 -14.34245754 23.19604054 -20.671875 23.36328125 C-27.70410195 22.26597067 -32.62772622 18.23644302 -37.9375 13.8125 C-38.62134766 13.25369141 -39.30519531 12.69488281 -40.00976562 12.11914062 C-41.67911014 10.7533133 -43.34040437 9.37765661 -45 8 C-42 7 -42 7 -38.6015625 8.58203125 C-37.27045486 9.31547156 -35.94510168 10.05943041 -34.625 10.8125 C-27.0990487 15.31354469 -27.0990487 15.31354469 -18.6796875 17.12890625 C-13.32680913 15.48667499 -10.71667524 12.09347995 -7.125 7.9375 C-5.79608031 6.44500146 -4.46544882 4.95402469 -3.1328125 3.46484375 C-2.55418457 2.800896 -1.97555664 2.13694824 -1.37939453 1.45288086 C-0.92419434 0.97343018 -0.46899414 0.49397949 0 0 Z " fill="#B11815" transform="translate(443,683)"/>
<path d="M0 0 C0.77859375 0.35191406 1.5571875 0.70382812 2.359375 1.06640625 C10.18469844 4.51928514 18.08172136 7.48248381 26.17504883 10.24560547 C32.34566788 12.37139684 38.39717143 14.71744939 44.4375 17.1875 C50.98107653 19.86332374 57.4530167 22.22893318 64.2734375 24.11328125 C68.35295508 25.44000115 71.94699032 26.94699032 75 30 C75.125 33.625 75.125 33.625 75 37 C74.01 37.495 74.01 37.495 73 38 C72.48759766 36.37578125 72.48759766 36.37578125 71.96484375 34.71875 C70.54341157 31.43483695 69.9899685 30.99403085 66.69140625 29.03125 C65.3253028 28.49413367 63.94787248 27.98525837 62.5625 27.5 C61.81387695 27.21503662 61.06525391 26.93007324 60.29394531 26.63647461 C57.8728567 25.72619521 55.43998101 24.85825333 53 24 C51.80383057 23.57485107 51.80383057 23.57485107 50.58349609 23.14111328 C47.31074977 21.98139541 44.03480852 20.83207667 40.75097656 19.70410156 C33.51676288 17.21655716 26.37261441 14.51957725 19.24121094 11.75219727 C14.47727806 9.91090239 9.71116077 8.21743278 4.82519531 6.72583008 C2.30234378 5.72256127 1.172066 4.42226973 0 2 C0 1.34 0 0.68 0 0 Z " fill="#B61A16" transform="translate(111,578)"/>
<path d="M0 0 C8.69074832 3.06732294 14.46853447 8.82958172 20 16 C17.73668104 18.62257594 16.0684143 19.50431006 12.6875 20.1875 C11.94886719 20.34605469 11.21023438 20.50460937 10.44921875 20.66796875 C7.61117961 21.0527109 4.86056587 21.05366141 2 21 C2.02320313 20.11957031 2.04640625 19.23914063 2.0703125 18.33203125 C2.08835937 17.17058594 2.10640625 16.00914062 2.125 14.8125 C2.14820313 13.66394531 2.17140625 12.51539063 2.1953125 11.33203125 C2.00313801 8.05353443 1.30350369 5.9713726 0 3 C0 2.01 0 1.02 0 0 Z " fill="#B42724" transform="translate(468,662)"/>
<path d="M0 0 C-0.08378906 0.83402344 -0.16757813 1.66804687 -0.25390625 2.52734375 C-0.8611662 9.23795059 -1.01636473 15.33716455 0 22 C-1.6045556 21.85851011 -3.20863767 21.71164314 -4.8125 21.5625 C-5.70582031 21.48128906 -6.59914063 21.40007813 -7.51953125 21.31640625 C-10 21 -10 21 -13 20 C-13 11.85743428 -7.65097475 6.86969674 -2.3046875 1.203125 C-1 0 -1 0 0 0 Z " fill="#B22724" transform="translate(124,665)"/>
<path d="M0 0 C0 0.66 0 1.32 0 2 C-1.05058594 2.50789062 -2.10117188 3.01578125 -3.18359375 3.5390625 C-13.53499788 8.58766543 -13.53499788 8.58766543 -23.10546875 14.96875 C-25.6476398 16.3525297 -27.14821119 16.4835058 -30 16 C-31.9140625 14.171875 -31.9140625 14.171875 -33.625 11.75 C-34.19476563 10.96109375 -34.76453125 10.1721875 -35.3515625 9.359375 C-35.89554688 8.58078125 -36.43953125 7.8021875 -37 7 C-37.99563024 5.6634005 -38.99415746 4.32893136 -40 3 C-39.67 2.34 -39.34 1.68 -39 1 C-38.14728516 1.97453125 -38.14728516 1.97453125 -37.27734375 2.96875 C-32.56262834 8.29438573 -32.56262834 8.29438573 -26.125 10.75 C-22.75277656 9.94066637 -22.29835912 9.34960459 -20 7 C-17.44979661 5.56388351 -14.75112508 4.46545561 -12.0625 3.3125 C-11.34642578 2.99216797 -10.63035156 2.67183594 -9.89257812 2.34179688 C-9.19712891 2.03951172 -8.50167969 1.73722656 -7.78515625 1.42578125 C-7.15488525 1.15161377 -6.52461426 0.87744629 -5.87524414 0.5949707 C-4 0 -4 0 0 0 Z " fill="#B61B14" transform="translate(202,689)"/>
<path d="M0 0 C0 8.58 0 17.16 0 26 C-2 22 -2 22 -3.375 18.5 C-5.63595473 13.63025135 -8.69774718 11.07303773 -13 8 C-12.01 7.34 -11.02 6.68 -10 6 C-9.67 5.01 -9.34 4.02 -9 3 C-5.78715662 1.11420063 -3.75366417 0 0 0 Z " fill="#B61914" transform="translate(217,681)"/>
<path d="M0 0 C-2.52951096 2.90893761 -2.52951096 2.90893761 -4.9375 3.375 C-8.02086495 4.30935302 -9.1708587 6.45226747 -11 9 C-11.66 8.67 -12.32 8.34 -13 8 C-10.02763465 2.21170957 -6.67090626 -0.57179197 0 0 Z " fill="#FDB826" transform="translate(294,382)"/>
<path d="M0 0 C0.66 0.33 1.32 0.66 2 1 C1.690625 2.0725 1.38125 3.145 1.0625 4.25 C0.00796287 7.74839585 0.00796287 7.74839585 -0.4375 10.375 C-0.623125 10.91125 -0.80875 11.4475 -1 12 C-1.99 12.33 -2.98 12.66 -4 13 C-2.93204565 8.49933525 -1.85961414 4.2505466 0 0 Z " fill="#F79511" transform="translate(190,601)"/>
<path d="M0 0 C0.66 1.32 1.32 2.64 2 4 C0.39504433 3.88557539 -1.20898119 3.75805306 -2.8125 3.625 C-3.70582031 3.55539062 -4.59914063 3.48578125 -5.51953125 3.4140625 C-8 3 -8 3 -11 1 C-7.37 1.33 -3.74 1.66 0 2 C0 1.34 0 0.68 0 0 Z " fill="#CD2128" transform="translate(122,683)"/>
<path d="M0 0 C0 4.61538462 0 4.61538462 -1 7 C-3.5625 8.25 -3.5625 8.25 -6 9 C-4.68775452 5.06326356 -3.08089673 2.77280706 0 0 Z " fill="#FCBE40" transform="translate(163,435)"/>
<path d="M0 0 C0.33 0 0.66 0 1 0 C0.67 3.3 0.34 6.6 0 10 C-0.99 10.33 -1.98 10.66 -3 11 C-2.69078116 9.54096742 -2.37751201 8.08279278 -2.0625 6.625 C-1.88847656 5.81289063 -1.71445312 5.00078125 -1.53515625 4.1640625 C-1 2 -1 2 0 0 Z " fill="#C51E1B" transform="translate(376,793)"/>
<path d="M0 0 C-1 3 -1 3 -3 4 C-2.67 4.66 -2.34 5.32 -2 6 C-4.86724686 5.42655063 -5.8614515 5.1385485 -8 3 C-2.25 0 -2.25 0 0 0 Z " fill="#C8261C" transform="translate(208,685)"/>
<path d="M0 0 C1.32 0.99 2.64 1.98 4 3 C3.34 4.32 2.68 5.64 2 7 C1.34 7 0.68 7 0 7 C0 4.69 0 2.38 0 0 Z " fill="#F78A02" transform="translate(111,570)"/>
<path d="M0 0 C0.928125 0.0825 1.85625 0.165 2.8125 0.25 C2.8125 0.91 2.8125 1.57 2.8125 2.25 C-0.1575 2.91 -3.1275 3.57 -6.1875 4.25 C-4.36434338 1.00883268 -3.82500054 0.30000004 0 0 Z " fill="#FDC74C" transform="translate(173.1875,426.75)"/>
</svg>
